<?xml version="1.0" encoding="utf-8"?>
<!-- Generator: Adobe Illustrator 15.1.0, SVG Export Plug-In . SVG Version: 6.00 Build 0)  -->
<!DOCTYPE svg PUBLIC "-//W3C//DTD SVG 1.1//EN" "http://www.w3.org/Graphics/SVG/1.1/DTD/svg11.dtd">
<svg version="1.1" id="Camada_1" xmlns="http://www.w3.org/2000/svg" xmlns:xlink="http://www.w3.org/1999/xlink" x="0px" y="0px"
	 width="612px" height="792px" viewBox="0 0 612 792" enable-background="new 0 0 612 792" xml:space="preserve">
<path stroke="#000000" stroke-miterlimit="10" d="M363.934,359.505c0,6.627-5.373,12-12,12H35.275c-6.627,0-12-5.373-12-12V187.901
	c0-6.627,5.373-12,12-12h316.659c6.627,0,12,5.373,12,12V359.505z"/>
<rect x="119.978" y="396" stroke="#000000" stroke-miterlimit="10" width="143.956" height="20.561"/>
<rect x="180.417" y="371.505" stroke="#000000" stroke-miterlimit="10" width="21.978" height="24.495"/>
<rect x="44.154" y="195.681" fill="#FFFFFF" stroke="#4E9E5C" stroke-miterlimit="10" width="295.604" height="156.044"/>
<rect x="51.333" y="213.667" fill="#389742" stroke="#4E9E5C" stroke-miterlimit="10" width="7.333" height="8.333"/>
<rect x="51.333" y="225.667" fill="#389742" stroke="#4E9E5C" stroke-miterlimit="10" width="7.333" height="8.333"/>
<rect x="51.333" y="238" fill="#389742" stroke="#4E9E5C" stroke-miterlimit="10" width="7.333" height="8.667"/>
<rect x="61.333" y="213.667" fill="#389742" stroke="#4E9E5C" stroke-miterlimit="10" width="7.333" height="8.333"/>
<rect x="61.333" y="225.667" fill="#389742" stroke="#4E9E5C" stroke-miterlimit="10" width="7.333" height="8.333"/>
<rect x="61.333" y="238" fill="#389742" stroke="#4E9E5C" stroke-miterlimit="10" width="7.333" height="8.667"/>
<rect x="61.333" y="202.333" fill="#389742" stroke="#4E9E5C" stroke-miterlimit="10" width="7.333" height="7.667"/>
<rect x="72" y="202.333" fill="#389742" stroke="#4E9E5C" stroke-miterlimit="10" width="7.333" height="7.667"/>
<rect x="72" y="225.667" fill="#389742" stroke="#439B56" stroke-miterlimit="10" width="7.333" height="8.333"/>
<ellipse fill="#C85223" stroke="#C95933" stroke-miterlimit="10" cx="54.333" cy="206.167" rx="4.333" ry="3.833"/>
<rect x="44.154" y="343.333" fill="#359854" stroke="#229449" stroke-miterlimit="10" width="295.604" height="8.392"/>
<rect x="46.333" y="344.667" fill="#FFFFFF" stroke="#FFFFFF" stroke-miterlimit="10" width="8" height="4.667"/>
<rect x="58.667" y="344.667" fill="#FFFFFF" stroke="#FFFFFF" stroke-miterlimit="10" width="8.333" height="4.667"/>
<rect x="72" y="344.667" fill="#FFFFFF" stroke="#FFFFFF" stroke-miterlimit="10" width="9.667" height="4.667"/>
<rect x="85.667" y="344.667" fill="#FFFFFF" stroke="#FFFFFF" stroke-miterlimit="10" width="9.667" height="4.667"/>
<rect x="46.333" y="344.667" stroke="#FFFFFF" stroke-miterlimit="10" width="3.333" height="2.333"/>
<rect x="50.333" y="344.667" stroke="#FFFFFF" stroke-miterlimit="10" width="3.292" height="2.333"/>
<rect x="46.333" y="347" stroke="#FFFFFF" stroke-miterlimit="10" width="3.333" height="2.333"/>
<rect x="50.333" y="347" stroke="#FFFFFF" stroke-miterlimit="10" width="3.292" height="2.333"/>
<rect x="58.667" y="344.667" fill="#B32215" stroke="#FFFFFF" stroke-miterlimit="10" width="8.333" height="2.333"/>
<rect x="64.042" y="347" fill="#EFE851" stroke="#FFFFFF" stroke-miterlimit="10" width="2.958" height="2.333"/>
<rect x="59.208" y="347" fill="#4E9D40" stroke="#FFFFFF" stroke-miterlimit="10" width="3.625" height="2.333"/>
<rect x="63.292" y="347" fill="#E6E238" stroke="#FFFFFF" stroke-miterlimit="10" width="3.708" height="2.333"/>
<ellipse fill="#40A6D3" stroke="#FFFFFF" stroke-miterlimit="10" cx="62.958" cy="347.125" rx="1.042" ry="0.792"/>
<rect x="72" y="344.667" fill="#CF7038" stroke="#D07520" stroke-miterlimit="10" width="9.667" height="4.667"/>
<rect x="72.75" y="345.083" fill="#F4DB48" stroke="#D07520" stroke-miterlimit="10" width="2" height="3.625"/>
<rect x="74.75" y="345.083" fill="#F4DB48" stroke="#D07520" stroke-miterlimit="10" width="2.083" height="3.875"/>
<rect x="77.333" y="345.083" fill="#F4DB48" stroke="#D07520" stroke-miterlimit="10" width="1.917" height="3.625"/>
<rect x="79.708" y="345.083" fill="#F4DB48" stroke="#D07520" stroke-miterlimit="10" width="1.625" height="3.875"/>
<rect x="85.667" y="344.667" fill="#45A6C7" stroke="#4AA7C2" stroke-miterlimit="10" width="9.667" height="4.667"/>
<rect x="87.25" y="345.542" fill="#FFFFFF" stroke="#4AA7C2" stroke-miterlimit="10" width="1.458" height="3.417"/>
<rect x="89.208" y="345.542" fill="#FFFFFF" stroke="#4AA7C2" stroke-miterlimit="10" width="4.25" height="1.708"/>
<rect x="36" y="444" stroke="#000000" stroke-miterlimit="10" width="312" height="71"/>
<rect x="77" y="502.667" fill="#FFFFFF" stroke="#FFFFFF" stroke-miterlimit="10" width="125.396" height="7"/>
<rect x="57.666" y="502.667" fill="#FFFFFF" stroke="#FFFFFF" stroke-miterlimit="10" width="11.333" height="7"/>
<rect x="40.666" y="502.667" fill="#FFFFFF" stroke="#FFFFFF" stroke-miterlimit="10" width="11.333" height="7"/>
<rect x="40.666" y="490.334" fill="#FFFFFF" stroke="#FFFFFF" stroke-miterlimit="10" width="11.333" height="7.333"/>
<rect x="57.666" y="490.334" fill="#FFFFFF" stroke="#FFFFFF" stroke-miterlimit="10" width="11.333" height="7.333"/>
<rect x="57.666" y="476.667" fill="#FFFFFF" stroke="#FFFFFF" stroke-miterlimit="10" width="11.333" height="7.667"/>
<rect x="40.666" y="476.667" fill="#FFFFFF" stroke="#FFFFFF" stroke-miterlimit="10" width="11.333" height="7.667"/>
<rect x="40.666" y="464.334" fill="#FFFFFF" stroke="#FFFFFF" stroke-miterlimit="10" width="11.333" height="7.333"/>
<rect x="57.666" y="464.334" fill="#FFFFFF" stroke="#FFFFFF" stroke-miterlimit="10" width="11.333" height="7.333"/>
<rect x="40.666" y="451.667" fill="#FFFFFF" stroke="#FFFFFF" stroke-miterlimit="10" width="11.333" height="7.667"/>
<rect x="57.666" y="451.667" fill="#FFFFFF" stroke="#FFFFFF" stroke-miterlimit="10" width="11.333" height="7.667"/>
<rect x="73.666" y="490.334" fill="#FFFFFF" stroke="#FFFFFF" stroke-miterlimit="10" width="10.333" height="7.333"/>
<rect x="73.666" y="476.667" fill="#FFFFFF" stroke="#FFFFFF" stroke-miterlimit="10" width="10.333" height="7.667"/>
<rect x="73.666" y="464.334" fill="#FFFFFF" stroke="#FFFFFF" stroke-miterlimit="10" width="10.333" height="7.333"/>
<rect x="73.666" y="451.667" fill="#FFFFFF" stroke="#FFFFFF" stroke-miterlimit="10" width="10.333" height="7.667"/>
<rect x="88.333" y="451.667" fill="#FFFFFF" stroke="#FFFFFF" stroke-miterlimit="10" width="10.333" height="7.667"/>
<rect x="88.333" y="464.334" fill="#FFFFFF" stroke="#FFFFFF" stroke-miterlimit="10" width="10.333" height="7.333"/>
<rect x="88.333" y="476.667" fill="#FFFFFF" stroke="#FFFFFF" stroke-miterlimit="10" width="10.333" height="7.667"/>
<rect x="88.333" y="490.334" fill="#FFFFFF" stroke="#FFFFFF" stroke-miterlimit="10" width="10.333" height="7.333"/>
<rect x="103" y="451.667" fill="#FFFFFF" stroke="#FFFFFF" stroke-miterlimit="10" width="10.667" height="7.667"/>
<rect x="103" y="464.334" fill="#FFFFFF" stroke="#FFFFFF" stroke-miterlimit="10" width="10.667" height="7.333"/>
<rect x="103" y="476.667" fill="#FFFFFF" stroke="#FFFFFF" stroke-miterlimit="10" width="10.667" height="7.667"/>
<rect x="103" y="489.334" fill="#FFFFFF" stroke="#FFFFFF" stroke-miterlimit="10" width="10.667" height="8.333"/>
<rect x="118.333" y="451.667" fill="#FFFFFF" stroke="#FFFFFF" stroke-miterlimit="10" width="11.667" height="7.667"/>
<rect x="118.333" y="464.334" fill="#FFFFFF" stroke="#FFFFFF" stroke-miterlimit="10" width="11.667" height="7.333"/>
<rect x="118.333" y="476.667" fill="#FFFFFF" stroke="#FFFFFF" stroke-miterlimit="10" width="11.667" height="7.667"/>
<rect x="118.333" y="489.334" fill="#FFFFFF" stroke="#FFFFFF" stroke-miterlimit="10" width="11.667" height="8.333"/>
<rect x="134" y="451.667" fill="#FFFFFF" stroke="#FFFFFF" stroke-miterlimit="10" width="12.667" height="7.667"/>
<rect x="134" y="464.334" fill="#FFFFFF" stroke="#FFFFFF" stroke-miterlimit="10" width="12.667" height="7.333"/>
<rect x="134" y="476.667" fill="#FFFFFF" stroke="#FFFFFF" stroke-miterlimit="10" width="12.667" height="7.667"/>
<rect x="134" y="489.334" fill="#FFFFFF" stroke="#FFFFFF" stroke-miterlimit="10" width="12.667" height="8.333"/>
<rect x="151" y="451.667" fill="#FFFFFF" stroke="#FFFFFF" stroke-miterlimit="10" width="12.667" height="7.667"/>
<rect x="151" y="464.334" fill="#FFFFFF" stroke="#FFFFFF" stroke-miterlimit="10" width="12.667" height="7.333"/>
<rect x="151" y="476.667" fill="#FFFFFF" stroke="#FFFFFF" stroke-miterlimit="10" width="12.667" height="7.667"/>
<rect x="151" y="489.334" fill="#FFFFFF" stroke="#FFFFFF" stroke-miterlimit="10" width="12.667" height="8.333"/>
<rect x="167.333" y="451.667" fill="#FFFFFF" stroke="#FFFFFF" stroke-miterlimit="10" width="11.667" height="7.667"/>
<rect x="167.333" y="464.334" fill="#FFFFFF" stroke="#FFFFFF" stroke-miterlimit="10" width="11.667" height="7.333"/>
<rect x="167.333" y="476.667" fill="#FFFFFF" stroke="#FFFFFF" stroke-miterlimit="10" width="11.667" height="7.667"/>
<rect x="167.333" y="489.334" fill="#FFFFFF" stroke="#FFFFFF" stroke-miterlimit="10" width="11.667" height="8.333"/>
<rect x="183" y="451.667" fill="#FFFFFF" stroke="#FFFFFF" stroke-miterlimit="10" width="12" height="7.667"/>
<rect x="183" y="464.334" fill="#FFFFFF" stroke="#FFFFFF" stroke-miterlimit="10" width="12" height="7.333"/>
<rect x="183" y="476.667" fill="#FFFFFF" stroke="#FFFFFF" stroke-miterlimit="10" width="12" height="7.667"/>
<rect x="183" y="489.334" fill="#FFFFFF" stroke="#FFFFFF" stroke-miterlimit="10" width="12" height="8.333"/>
<rect x="199.333" y="489.334" fill="#FFFFFF" stroke="#FFFFFF" stroke-miterlimit="10" width="11" height="8.333"/>
<rect x="199.333" y="476.667" fill="#FFFFFF" stroke="#FFFFFF" stroke-miterlimit="10" width="11" height="7.667"/>
<rect x="199.333" y="464.334" fill="#FFFFFF" stroke="#FFFFFF" stroke-miterlimit="10" width="11" height="7.333"/>
<rect x="199.333" y="451.667" fill="#FFFFFF" stroke="#FFFFFF" stroke-miterlimit="10" width="11" height="7.667"/>
<rect x="208.666" y="502.667" fill="#FFFFFF" stroke="#FFFFFF" stroke-miterlimit="10" width="19.333" height="7"/>
<rect x="214" y="489.334" fill="#FFFFFF" stroke="#FFFFFF" stroke-miterlimit="10" width="12" height="8.333"/>
<rect x="214" y="476.667" fill="#FFFFFF" stroke="#FFFFFF" stroke-miterlimit="10" width="12" height="7.667"/>
<rect x="214" y="464.334" fill="#FFFFFF" stroke="#FFFFFF" stroke-miterlimit="10" width="12" height="7.333"/>
<rect x="214" y="451.667" fill="#FFFFFF" stroke="#FFFFFF" stroke-miterlimit="10" width="12" height="7.667"/>
<rect x="230.666" y="451.667" fill="#FFFFFF" stroke="#FFFFFF" stroke-miterlimit="10" width="12.333" height="7.667"/>
<rect x="230.666" y="464.334" fill="#FFFFFF" stroke="#FFFFFF" stroke-miterlimit="10" width="12.333" height="7.333"/>
<rect x="230.666" y="476.667" fill="#FFFFFF" stroke="#FFFFFF" stroke-miterlimit="10" width="12.333" height="7.667"/>
<rect x="230.666" y="489.334" fill="#FFFFFF" stroke="#FFFFFF" stroke-miterlimit="10" width="12.333" height="8.333"/>
<rect x="230.666" y="502.667" fill="#FFFFFF" stroke="#FFFFFF" stroke-miterlimit="10" width="12.333" height="7"/>
<rect x="250" y="451.667" fill="#FFFFFF" stroke="#FFFFFF" stroke-miterlimit="10" width="28.667" height="7.667"/>
<rect x="250" y="464.334" fill="#FFFFFF" stroke="#FFFFFF" stroke-miterlimit="10" width="16" height="7.333"/>
<rect x="259.666" y="464.334" fill="#FFFFFF" stroke="#FFFFFF" stroke-miterlimit="10" width="10.667" height="18.665"/>
<rect x="247.333" y="489.334" fill="#FFFFFF" stroke="#FFFFFF" stroke-miterlimit="10" width="31.333" height="13.333"/>
<rect x="291" y="451.667" fill="#FFFFFF" stroke="#FFFFFF" stroke-miterlimit="10" width="9" height="7.667"/>
<rect x="304.666" y="451.667" fill="#FFFFFF" stroke="#FFFFFF" stroke-miterlimit="10" width="8.334" height="7.667"/>
<rect x="291" y="462.999" fill="#FFFFFF" stroke="#FFFFFF" stroke-miterlimit="10" width="9" height="8.668"/>
<rect x="304.666" y="462.999" fill="#FFFFFF" stroke="#FFFFFF" stroke-miterlimit="10" width="8.334" height="8.668"/>
<rect x="291" y="474.999" fill="#FFFFFF" stroke="#FFFFFF" stroke-miterlimit="10" width="9" height="9.335"/>
<rect x="304.666" y="474.999" fill="#FFFFFF" stroke="#FFFFFF" stroke-miterlimit="10" width="8.334" height="9.335"/>
<rect x="291" y="487.666" fill="#FFFFFF" stroke="#FFFFFF" stroke-miterlimit="10" width="9" height="10.001"/>
<rect x="303.333" y="487.666" fill="#FFFFFF" stroke="#FFFFFF" stroke-miterlimit="10" width="9.667" height="10.001"/>
<rect x="317.333" y="451.667" fill="#FFFFFF" stroke="#FFFFFF" stroke-miterlimit="10" width="9.333" height="7.667"/>
<rect x="317.333" y="462.999" fill="#FFFFFF" stroke="#FFFFFF" stroke-miterlimit="10" width="9.333" height="8.668"/>
<rect x="317.333" y="474.999" fill="#FFFFFF" stroke="#FFFFFF" stroke-miterlimit="10" width="9.333" height="9.335"/>
<rect x="317.333" y="487.666" fill="#FFFFFF" stroke="#FFFFFF" stroke-miterlimit="10" width="9.333" height="10.001"/>
<rect x="291" y="501.332" fill="#FFFFFF" stroke="#FFFFFF" stroke-miterlimit="10" width="22" height="10"/>
<rect x="317.333" y="501.332" fill="#FFFFFF" stroke="#FFFFFF" stroke-miterlimit="10" width="9.333" height="10"/>
<rect x="330" y="487.666" fill="#FFFFFF" stroke="#FFFFFF" stroke-miterlimit="10" width="9.758" height="23.666"/>
<rect x="330" y="474.999" fill="#FFFFFF" stroke="#FFFFFF" stroke-miterlimit="10" width="9.758" height="9.335"/>
<rect x="330" y="462.999" fill="#FFFFFF" stroke="#FFFFFF" stroke-miterlimit="10" width="9.758" height="8.668"/>
<rect x="330" y="451.667" fill="#FFFFFF" stroke="#FFFFFF" stroke-miterlimit="10" width="9.758" height="7.667"/>
<rect x="245.666" y="487.666" stroke="#000000" stroke-miterlimit="10" width="37.333" height="20"/>
<rect x="258" y="487.666" fill="#FFFFFF" stroke="#FFFFFF" stroke-miterlimit="10" width="12.333" height="10"/>
<rect x="258" y="501.332" fill="#FFFFFF" stroke="#FFFFFF" stroke-miterlimit="10" width="12.333" height="10"/>
<rect x="245.666" y="501.332" fill="#FFFFFF" stroke="#FFFFFF" stroke-miterlimit="10" width="9.667" height="10"/>
<rect x="272.666" y="501.332" fill="#FFFFFF" stroke="#FFFFFF" stroke-miterlimit="10" width="10.333" height="10"/>
<ellipse fill="#FFFFFF" stroke="#FFFFFF" stroke-miterlimit="10" cx="191.833" cy="364.419" rx="7.5" ry="7.086"/>
<ellipse fill="#FFFFFF" stroke="#FFFFFF" stroke-miterlimit="10" cx="194.645" cy="185.666" rx="2.688" ry="3.667"/>
<ellipse fill="#FFFFFF" stroke="#FFFFFF" stroke-miterlimit="10" cx="200" cy="183.833" rx="1" ry="1.833"/>
<path fill="#FFFFFF" stroke="#000000" stroke-miterlimit="10" d="M310.666,208c0,3.13-2.537,5.667-5.667,5.667H101
	c-3.129,0-5.667-2.537-5.667-5.667l0,0c0-3.129,2.537-5.667,5.667-5.667h203.999C308.129,202.333,310.666,204.871,310.666,208
	L310.666,208z"/>
<path fill="#FFFFFF" stroke="#000000" stroke-miterlimit="10" d="M180.417,252.666c0,6.627-5.373,12-12,12h-61.084
	c-6.627,0-12-5.373-12-12v-22.832c0-6.627,5.373-12,12-12h61.084c6.627,0,12,5.373,12,12V252.666z"/>
<path fill="#FFFFFF" stroke="#000000" stroke-miterlimit="10" d="M180.417,310.999c0,6.627-5.373,12-12,12h-61.084
	c-6.627,0-12-5.373-12-12v-25.296c0-6.627,5.373-12,12-12h61.084c6.627,0,12,5.373,12,12V310.999z"/>
<rect x="256" y="217.833" fill="#FFFFFF" stroke="#000000" stroke-miterlimit="10" width="52.333" height="103.832"/>
<ellipse fill="#FFFFFF" stroke="#000000" stroke-miterlimit="10" cx="101.938" cy="206.563" rx="2.063" ry="2.313"/>
<rect x="101.375" y="208.875" stroke="#000000" stroke-miterlimit="10" width="1.25" height="3.875"/>
<rect x="103.25" y="222.875" stroke="#000000" stroke-miterlimit="10" width="67.625" height="1.625"/>
<rect x="103.25" y="227" stroke="#000000" stroke-miterlimit="10" width="45.375" height="1.625"/>
<rect x="103.25" y="230.75" stroke="#000000" stroke-miterlimit="10" width="67.625" height="2.375"/>
<rect x="103.25" y="235.375" stroke="#000000" stroke-miterlimit="10" width="16.5" height="2.625"/>
<rect x="103.25" y="239.875" stroke="#000000" stroke-miterlimit="10" width="49.875" height="2.458"/>
<rect x="103.25" y="243.875" stroke="#000000" stroke-miterlimit="10" width="44.25" height="13.25"/>
<path stroke="#000000" stroke-miterlimit="10" d="M143.5,290c0,5.523-4.477,10-10,10H112c-5.523,0-10-4.477-10-10l0,0
	c0-5.523,4.477-10,10-10h21.5C139.023,280,143.5,284.477,143.5,290L143.5,290z"/>
<rect x="147.5" y="280" stroke="#000000" stroke-miterlimit="10" width="24" height="2.5"/>
<rect x="147.5" y="284.875" stroke="#000000" stroke-miterlimit="10" width="18.375" height="2.625"/>
<rect x="147.5" y="290" stroke="#000000" stroke-miterlimit="10" width="23.125" height="3.5"/>
<rect x="147.5" y="295.25" stroke="#000000" stroke-miterlimit="10" width="28.25" height="3.101"/>
<rect x="102" y="303.625" stroke="#000000" stroke-miterlimit="10" width="73.75" height="2.25"/>
<rect x="102" y="308.375" stroke="#000000" stroke-miterlimit="10" width="41.5" height="2.5"/>
<rect x="102" y="312.625" stroke="#000000" stroke-miterlimit="10" width="60.75" height="2"/>
<rect x="106.875" y="282.5" fill="#8477AE" stroke="#000000" stroke-miterlimit="10" width="31" height="1.625"/>
<rect x="147.5" y="280" fill="#8477AE" stroke="#000000" stroke-miterlimit="10" width="24" height="1.875"/>
<rect x="147.5" y="290" fill="#8477AE" stroke="#000000" stroke-miterlimit="10" width="23.125" height="3.5"/>
<rect x="147.5" y="284.875" fill="#8477AE" stroke="#000000" stroke-miterlimit="10" width="18.375" height="2.625"/>
<rect x="147.5" y="295.25" fill="#8477AE" stroke="#000000" stroke-miterlimit="10" width="28.25" height="3.101"/>
<rect x="102" y="303.625" fill="#8477AE" stroke="#000000" stroke-miterlimit="10" width="73.75" height="2.25"/>
<rect x="102" y="308.375" fill="#8477AE" stroke="#000000" stroke-miterlimit="10" width="41.5" height="2.5"/>
<rect x="102" y="312.625" fill="#8477AE" stroke="#000000" stroke-miterlimit="10" width="60.75" height="2"/>
<rect x="106.875" y="286.188" fill="#8477AE" stroke="#000000" stroke-miterlimit="10" width="30.188" height="1.313"/>
<rect x="106.875" y="284.125" fill="#8477AE" stroke="#000000" stroke-miterlimit="10" width="31" height="2.063"/>
<rect x="105.25" y="288.125" fill="#8477AE" stroke="#000000" stroke-miterlimit="10" width="16.719" height="6.25"/>
<rect x="127.375" y="290.625" fill="#8477AE" stroke="#000000" stroke-miterlimit="10" width="7.625" height="6.176"/>
<rect x="118.875" y="295.25" fill="#8477AE" stroke="#000000" stroke-miterlimit="10" width="6.5" height="3.875"/>
<rect x="122.75" y="287.5" fill="#8477AE" stroke="#000000" stroke-miterlimit="10" width="4.625" height="3.75"/>
<polygon fill="#8477AE" stroke="#000000" stroke-miterlimit="10" points="138.875,292.875 137.134,292.068 135.483,293.044 
	135.712,291.139 134.273,289.87 136.156,289.5 136.918,287.739 137.853,289.416 139.763,289.597 138.457,291.002 "/>
<path fill="#329642" stroke="#000000" stroke-miterlimit="10" d="M170.875,223.688c0,0.449-0.364,0.813-0.813,0.813h-66
	c-0.449,0-0.813-0.364-0.813-0.813l0,0c0-0.449,0.364-0.813,0.813-0.813h66C170.511,222.875,170.875,223.239,170.875,223.688
	L170.875,223.688z"/>
<path fill="#329642" stroke="#000000" stroke-miterlimit="10" d="M148.625,227.813c0,0.449-0.364,0.813-0.813,0.813h-43.75
	c-0.449,0-0.813-0.364-0.813-0.813l0,0c0-0.449,0.364-0.813,0.813-0.813h43.75C148.261,227,148.625,227.364,148.625,227.813
	L148.625,227.813z"/>
<path fill="#329642" stroke="#000000" stroke-miterlimit="10" d="M170.875,231.938c0,0.656-0.532,1.188-1.188,1.188h-65.25
	c-0.656,0-1.188-0.532-1.188-1.188l0,0c0-0.656,0.532-1.188,1.188-1.188h65.25C170.343,230.75,170.875,231.282,170.875,231.938
	L170.875,231.938z"/>
<path fill="#329642" stroke="#000000" stroke-miterlimit="10" d="M119.75,236.688c0,0.725-0.587,1.313-1.313,1.313h-13.875
	c-0.725,0-1.313-0.587-1.313-1.313l0,0c0-0.725,0.587-1.313,1.313-1.313h13.875C119.163,235.375,119.75,235.962,119.75,236.688
	L119.75,236.688z"/>
<path fill="#329642" stroke="#000000" stroke-miterlimit="10" d="M153.125,241.104c0,0.679-0.55,1.229-1.229,1.229h-47.416
	c-0.679,0-1.229-0.55-1.229-1.229l0,0c0-0.679,0.55-1.229,1.229-1.229h47.416C152.575,239.875,153.125,240.425,153.125,241.104
	L153.125,241.104z"/>
<path fill="#329642" stroke="#000000" stroke-miterlimit="10" d="M146.625,250.5c0,3.659-2.966,6.625-6.625,6.625h-29.375
	c-3.659,0-6.625-2.966-6.625-6.625l0,0c0-3.659,2.966-6.625,6.625-6.625H140C143.659,243.875,146.625,246.841,146.625,250.5
	L146.625,250.5z"/>
<path fill="#B04C92" stroke="#A4418E" stroke-miterlimit="10" d="M297.625,233.125c0,6.627-5.373,12-12,12H269.75
	c-6.627,0-12-5.373-12-12v-0.75c0-6.627,5.373-12,12-12h15.875c6.627,0,12,5.373,12,12V233.125z"/>
<rect x="257.75" y="249.375" fill="#B04C92" stroke="#A4418E" stroke-miterlimit="10" width="48.25" height="3"/>
<rect x="257.75" y="255.25" fill="#B04C92" stroke="#A4418E" stroke-miterlimit="10" width="40.75" height="3.375"/>
<rect x="257.75" y="262.125" fill="#B04C92" stroke="#A4418E" stroke-miterlimit="10" width="29.125" height="3.375"/>
<rect x="257.75" y="269.75" fill="#B04C92" stroke="#A4418E" stroke-miterlimit="10" width="48.25" height="3.954"/>
<rect x="257.75" y="277.5" fill="#B04C92" stroke="#A4418E" stroke-miterlimit="10" width="20.375" height="4.5"/>
<rect x="257.75" y="285.125" fill="#B04C92" stroke="#A4418E" stroke-miterlimit="10" width="21.125" height="5.5"/>
<rect x="284.5" y="277.5" fill="#B04C92" stroke="#A4418E" stroke-miterlimit="10" width="21.5" height="13.125"/>
<rect x="257.75" y="293.625" fill="#B04C92" stroke="#A4418E" stroke-miterlimit="10" width="48.25" height="3.625"/>
<rect x="257.75" y="299.875" fill="#B04C92" stroke="#A4418E" stroke-miterlimit="10" width="39.875" height="3.375"/>
<rect x="257.75" y="305.625" fill="#B04C92" stroke="#A4418E" stroke-miterlimit="10" width="39.875" height="3.5"/>
<rect x="257.75" y="312" fill="#B04C92" stroke="#A4418E" stroke-miterlimit="10" width="48.25" height="5.375"/>
<rect x="257" y="248.667" fill="#B04C92" stroke="#000000" stroke-miterlimit="10" width="49" height="3.708"/>
<rect x="257" y="255.25" fill="#B04C92" stroke="#000000" stroke-miterlimit="10" width="41.5" height="3.375"/>
<rect x="257.75" y="262.125" fill="#B04C92" stroke="#000000" stroke-miterlimit="10" width="29.125" height="3.375"/>
<rect x="257" y="269.75" fill="#B04C92" stroke="#000000" stroke-miterlimit="10" width="49.833" height="3.954"/>
<rect x="257.75" y="277.5" fill="#B04C92" stroke="#000000" stroke-miterlimit="10" width="20.375" height="4.5"/>
<rect x="257.75" y="285.125" fill="#B04C92" stroke="#000000" stroke-miterlimit="10" width="21.125" height="5.5"/>
<rect x="257" y="293.625" fill="#B04C92" stroke="#000000" stroke-miterlimit="10" width="49" height="3.625"/>
<rect x="257.75" y="299.875" fill="#B04C92" stroke="#000000" stroke-miterlimit="10" width="39.875" height="3.375"/>
<rect x="257.75" y="305.625" fill="#B04C92" stroke="#000000" stroke-miterlimit="10" width="39.875" height="3.5"/>
<rect x="257.75" y="312" fill="#B04C92" stroke="#000000" stroke-miterlimit="10" width="48.25" height="5.375"/>
<rect x="284.5" y="277.5" fill="#B04C92" stroke="#000000" stroke-miterlimit="10" width="21.5" height="13.125"/>
<path fill="#B04C92" stroke="#000000" stroke-miterlimit="10" d="M298.5,233.75c0,6.627-5.373,12-12,12H269c-6.627,0-12-5.373-12-12
	v-1.375c0-6.627,5.373-12,12-12h17.5c6.627,0,12,5.373,12,12V233.75z"/>
<path stroke="#000000" stroke-miterlimit="10" d="M397,499.332c0,6.627-5.373,12-12,12h-9.066c-6.627,0-12-5.373-12-12V467.5
	c0-6.627,5.373-12,12-12H385c6.627,0,12,5.373,12,12V499.332z"/>
<rect x="378" y="429" stroke="#000000" stroke-miterlimit="10" width="5.5" height="26.5"/>
<rect x="310.666" y="429" stroke="#000000" stroke-miterlimit="10" width="67.334" height="4"/>
<rect x="306.833" y="429" stroke="#000000" stroke-miterlimit="10" width="3.833" height="15"/>
<rect x="380.467" y="459.334" fill="#FFFFFF" stroke="#000000" stroke-miterlimit="10" width="0.283" height="24.082"/>
<rect x="363.934" y="482.999" fill="#FFFFFF" stroke="#000000" stroke-miterlimit="10" width="33.066" height="1.335"/>
<rect x="378" y="455.5" fill="#FFFFFF" stroke="#000000" stroke-miterlimit="10" width="5.5" height="27.499"/>
<rect x="50" y="250.875" fill="#389742" stroke="#FFFFFF" stroke-miterlimit="10" width="4.333" height="86.625"/>
<rect x="57.666" y="255.25" fill="#389742" stroke="#FFFFFF" stroke-miterlimit="10" width="3.667" height="82.25"/>
<rect x="63.333" y="258.625" fill="#389742" stroke="#FFFFFF" stroke-miterlimit="10" width="3.667" height="78.875"/>
</svg>
